<?xml version="1.0" standalone="no"?><svg xmlns="http://www.w3.org/2000/svg" viewBox="0 0 1440 320"><path fill="#af4261" fill-opacity="1" d="M0,224L20,208C40,192,80,160,120,128C160,96,200,64,240,53.3C280,43,320,53,360,90.7C400,128,440,192,480,213.3C520,235,560,213,600,170.7C640,128,680,64,720,74.7C760,85,800,171,840,181.3C880,192,920,128,960,122.7C1000,117,1040,171,1080,213.3C1120,256,1160,288,1200,256C1240,224,1280,128,1320,128C1360,128,1400,224,1420,272L1440,320L1440,320L1420,320C1400,320,1360,320,1320,320C1280,320,1240,320,1200,320C1160,320,1120,320,1080,320C1040,320,1000,320,960,320C920,320,880,320,840,320C800,320,760,320,720,320C680,320,640,320,600,320C560,320,520,320,480,320C440,320,400,320,360,320C320,320,280,320,240,320C200,320,160,320,120,320C80,320,40,320,20,320L0,320Z"></path></svg>